<svg id="Layer_1" data-name="Layer 1" xmlns="http://www.w3.org/2000/svg" viewBox="0 0 276 291.91"><defs><style>.cls-1,.cls-3{fill:none;}.cls-2{fill:#a15a22;}.cls-3{stroke:#a15a22;stroke-miterlimit:10;stroke-width:2px;}</style></defs><line class="cls-1" x1="117.73" y1="175.95" x2="117.27" y2="174.12"/><polygon class="cls-2" points="89.74 177.37 83.17 173.88 76.58 177.31 77.86 169.99 72.56 164.77 79.93 163.74 83.25 157.08 86.51 163.77 93.86 164.87 88.51 170.03 89.74 177.37"/><polygon class="cls-2" points="116.82 177.26 110.25 173.77 103.66 177.2 104.94 169.87 99.64 164.66 107 163.62 110.33 156.97 113.59 163.65 120.94 164.75 115.59 169.92 116.82 177.26"/><polygon class="cls-2" points="144.33 177.26 137.76 173.77 131.16 177.2 132.45 169.87 127.15 164.66 134.51 163.62 137.84 156.97 141.1 163.65 148.45 164.75 143.1 169.92 144.33 177.26"/><polygon class="cls-2" points="171.84 177.26 165.27 173.77 158.67 177.2 159.96 169.87 154.66 164.66 162.03 163.62 165.34 156.97 168.61 163.65 175.96 164.75 170.61 169.92 171.84 177.26"/><polygon class="cls-2" points="198.89 177.26 192.32 173.77 185.73 177.2 187.01 169.87 181.71 164.66 189.08 163.62 192.4 156.97 195.66 163.65 203.01 164.75 197.66 169.92 198.89 177.26"/><path class="cls-2" d="M42.62,5l15.05.28a51.28,51.28,0,0,0-9.76,25.11,49.88,49.88,0,0,0,1.21,16.76,60.84,60.84,0,0,0-5.86,3.61A58.69,58.69,0,0,0,35.81,57a68.45,68.45,0,0,1-1.35-29.4A69.19,69.19,0,0,1,42.62,5Z" transform="translate(-12 -5.04)"/><path class="cls-2" d="M63.55,10.23l15-.75a51.23,51.23,0,0,0-7.9,25.71,49.44,49.44,0,0,0,2.44,16.63,60.7,60.7,0,0,0-5.58,4,58.37,58.37,0,0,0-7,6.68,68.28,68.28,0,0,1,3-52.27Z" transform="translate(-12 -5.04)"/><path class="cls-2" d="M141.7,7" transform="translate(-12 -5.04)"/><polyline class="cls-3" points="21.76 10.96 1 10.96 1 13.08 1 77.96"/><line class="cls-3" x1="71.58" y1="10.96" x2="275" y2="10.96"/><path class="cls-2" d="M257.38,297l-15-.28a51.28,51.28,0,0,0,9.76-25.11,49.88,49.88,0,0,0-1.21-16.76,60.84,60.84,0,0,0,5.86-3.61,58.69,58.69,0,0,0,7.45-6.18,68.45,68.45,0,0,1,1.35,29.4A69.19,69.19,0,0,1,257.38,297Z" transform="translate(-12 -5.04)"/><path class="cls-2" d="M236.45,291.77l-15,.75a51.23,51.23,0,0,0,7.9-25.71,49.44,49.44,0,0,0-2.44-16.63,60.7,60.7,0,0,0,5.58-4,58.37,58.37,0,0,0,7-6.68,68.28,68.28,0,0,1-3,52.27Z" transform="translate(-12 -5.04)"/><path class="cls-2" d="M158.3,295" transform="translate(-12 -5.04)"/><polyline class="cls-3" points="254.24 280.96 275 280.96 275 278.83 275 213.96"/><line class="cls-3" x1="204.42" y1="280.96" x2="1" y2="280.96"/></svg>