<svg xmlns="http://www.w3.org/2000/svg" viewBox="0 0 122.72 64.39"><defs><style>.cls-1{fill:#a65525;}.cls-2{fill:#2c1753;}</style></defs><g id="Layer_2" data-name="Layer 2"><g id="Layer_1-2" data-name="Layer 1"><path class="cls-1" d="M70.69,39.65c0,2.9,1.17,4.35,3.49,4.35q4.68,0,11.28-8.45a61.94,61.94,0,0,0,9.13-15.37q3.15-7.83,3.14-11.93a8.22,8.22,0,0,0-.1-1.3,3.21,3.21,0,0,1-2.34-1.49v.06a2.27,2.27,0,0,1-.78-1.59A1.79,1.79,0,0,1,95,2.6a1.82,1.82,0,0,1,1.35-.52,1.18,1.18,0,0,1,1.17.81,6,6,0,0,0,.86,1.46c.35.44.5.74.47.91a1,1,0,0,0,1,.59,2.33,2.33,0,0,0,1.48-.78,2.33,2.33,0,0,1,1.33-.78c.33,0,.49.13.49.39,0,.48-.33.93-1,1.36a1.91,1.91,0,0,1-1.24.59H99.24a19.14,19.14,0,0,1,.63,3.83q0,5.2-4,13.52A55.21,55.21,0,0,1,85.67,38.74q-6.28,6.63-11.41,6.63t-5.13-6.24q0-4.93,3.33-14.11l3.75-10.2-5.1,4.94q-2.39,2.47-4.86,5.43T57.64,37.38l-6,9.22c-1,1.39-1.84,2.08-2.6,2.08-.59,0-.88-.47-.88-1.43a10.38,10.38,0,0,1,.93-3.7l10-18.07q9.1-16.71,9.1-21.19c0-1.65-1.22-2.47-3.64-2.47q-4.43,0-12.33,6.76a35.57,35.57,0,0,0-7.48,9.13q-3.22,5.49-3.23,9.1c0,2.41,1.29,3.61,3.85,3.61q3.59,0,7.38-4.16a7.06,7.06,0,0,1,1.56-1.43c.14,0,.19.15.16.45Q53.9,27.76,50.23,30a12.87,12.87,0,0,1-6.47,2.24,4.29,4.29,0,0,1-1-.07h-.05c-2.78-.73-4.16-2.44-4.16-5.13s1.19-5.91,3.59-9.69A39.87,39.87,0,0,1,58.47,2.47C61.91.82,64.73,0,67,0q4.11,0,4.11,3.38,0,7-14.14,30.48-4.74,7.88-4.79,7.87c.1,0,1.92-2.45,5.43-7.35a143.37,143.37,0,0,1,10-12.54c1.22-1.34,3.31-3.81,6.3-7.41a39.8,39.8,0,0,1,5-4.94,3.12,3.12,0,0,1,2-.52,1.77,1.77,0,0,1,1.74.91,91.06,91.06,0,0,0-8.34,16.61Q70.69,35.68,70.69,39.65Z"/><path class="cls-2" d="M14.63,53.45c-1,.13-1.23.29-1.66,1.52s-1.27,3.85-2.55,8.23H9.67C8.86,60.83,8,58.34,7.16,55.94h0c-.81,2.52-1.63,4.9-2.38,7.26H4c-.83-2.8-1.63-5.49-2.48-8.28C1.15,53.72.9,53.55,0,53.45v-.59H4.22v.59c-1.14.11-1.17.27-1,1,.55,2,1.09,3.85,1.67,5.8H5C5.73,57.85,6.52,55.4,7.27,53H8c.84,2.44,1.7,4.86,2.56,7.34h.05c.58-2,1.32-4.59,1.56-5.64s.13-1.12-1.09-1.22v-.59h3.58Z"/><path class="cls-2" d="M14.41,63.05v-.48c1-.08,1.11-.16,1.11-1.23v-5c0-1.08-.13-1.16-1.11-1.23v-.48h3.64v.48c-1,.07-1.09.15-1.09,1.23v5c0,1.08.11,1.15,1.09,1.23v.48Z"/><path class="cls-2" d="M23.62,56.72C23.37,55.91,23,55,22,55a1.25,1.25,0,0,0-1.32,1.29c0,.8.54,1.23,1.61,1.77s2.24,1.27,2.24,2.63-1.21,2.53-3,2.53a4.54,4.54,0,0,1-1.26-.18,5.18,5.18,0,0,1-.73-.27,14.87,14.87,0,0,1-.38-2.1l.51-.14c.22.79.85,2.15,2.13,2.15a1.31,1.31,0,0,0,1.37-1.42c0-.82-.64-1.3-1.59-1.8-1.12-.56-2.18-1.25-2.18-2.58a2.51,2.51,0,0,1,2.81-2.42,5.64,5.64,0,0,1,1.71.32c.06.46.14,1,.25,1.83Z"/><path class="cls-2" d="M32,60.94a21,21,0,0,1-.45,2.11H25.16v-.48c1.09-.09,1.22-.16,1.22-1.23v-5c0-1.09-.13-1.16-1.06-1.23v-.48h5.9c0,.24.07,1.16.13,1.91l-.5.07a3.07,3.07,0,0,0-.45-1.08c-.17-.23-.52-.35-1.3-.35h-.79c-.44,0-.49,0-.49.45V58.4h1c1.08,0,1.2-.08,1.37-1h.49V60h-.49c-.17-1-.29-1-1.37-1h-1v2.28c0,.61.09.9.33,1a3.05,3.05,0,0,0,1.21.15c.76,0,1.18-.08,1.46-.4a4,4,0,0,0,.67-1.24Z"/><path class="cls-2" d="M43.61,60.45c-.11.61-.43,2.16-.56,2.6H35.73v-.58c1.3-.1,1.46-.2,1.46-1.5v-6c0-1.31-.16-1.41-1.37-1.49v-.59h4.47v.59c-1.22.08-1.36.18-1.36,1.49V61c0,.76.07,1.07.4,1.21a3.07,3.07,0,0,0,1.27.17,2,2,0,0,0,1.6-.49A4.76,4.76,0,0,0,43,60.31Z"/><path class="cls-2" d="M48,63.05v-.48c.76-.11.84-.22.67-.75s-.35-1-.56-1.57H45.57c-.15.41-.32.87-.46,1.38-.21.7-.15.83.77.94v.48H43v-.48c.84-.11,1-.2,1.43-1.3L47,54.62l.6-.15c.78,2.18,1.6,4.6,2.42,6.78.39,1.1.56,1.23,1.4,1.32v.48Zm-1.12-6.48h0c-.37,1-.72,2-1.07,3H47.9Z"/><path class="cls-2" d="M62.77,55.14c-.86.11-1,.24-1.38,1.26s-1,3.16-2.1,6.77h-.61c-.67-2-1.39-4-2.07-6h0c-.67,2.07-1.35,4-2,6H54c-.69-2.3-1.34-4.52-2.05-6.81-.31-1-.52-1.14-1.26-1.22v-.48h3.48v.48c-.94.1-1,.23-.79.86.45,1.6.9,3.16,1.37,4.77h0c.63-2,1.29-4,1.9-6h.58c.69,2,1.4,4,2.1,6h0c.49-1.62,1.09-3.78,1.29-4.64s.11-.93-.9-1v-.48h3Z"/><path class="cls-2" d="M73.68,54.4a3.59,3.59,0,0,0-.61-1.46c-.28-.4-.72-.53-1.78-.53H70.22c-.58,0-.65,0-.65.61v3.89h1.56c1.52,0,1.66-.13,1.85-1.25h.67v3.47H73c-.19-1.21-.33-1.36-1.85-1.36H69.57v2.9c0,1.51.16,1.6,1.7,1.73v.65H66.14V62.4c1.31-.11,1.49-.22,1.49-1.73V54c0-1.5-.18-1.61-1.47-1.7v-.65h8c0,.41.09,1.65.19,2.62Z"/><path class="cls-2" d="M75.44,63.05v-.48c1-.08,1.11-.16,1.11-1.23v-5c0-1.08-.13-1.16-1.11-1.23v-.48h3.64v.48c-1,.07-1.09.15-1.09,1.23v5c0,1.08.11,1.15,1.09,1.23v.48Z"/><path class="cls-2" d="M87.83,63.16H87.4a2.4,2.4,0,0,1-2.35-1.22c-.39-.56-.79-1.33-1.15-2a.9.9,0,0,0-.92-.51h-.36v1.9c0,1.07.12,1.15,1.09,1.23v.48H80.08v-.48c1-.08,1.13-.16,1.13-1.23v-5c0-1.05-.13-1.13-1.08-1.2v-.48h3.43a3.8,3.8,0,0,1,2.16.45,2,2,0,0,1,.88,1.71A2.29,2.29,0,0,1,85,59c.21.38.7,1.24,1.09,1.83a7.48,7.48,0,0,0,1,1.33,2,2,0,0,0,.85.58Zm-4.72-4.25a1.91,1.91,0,0,0,1.26-.35A1.81,1.81,0,0,0,85.05,57a1.64,1.64,0,0,0-1.7-1.83.83.83,0,0,0-.6.15c-.1.06-.13.2-.13.52v3.06Z"/><path class="cls-2" d="M94.84,63.16v-.48c1-.11,1-.16,1-1.39l0-5.1h0l-2.89,6.87h-.38l-2.63-6.72h-.06l-.15,3.52a14.28,14.28,0,0,0,0,2.06c0,.57.32.68,1.17.75v.49H87.77v-.49c.71-.07,1-.22,1-.73a21.35,21.35,0,0,0,.24-2.32l.2-2.69c.11-1.48,0-1.58-1.09-1.68v-.48h2.48l2.56,5.91,2.64-5.91H98.3v.48c-1.07.1-1.11.14-1.08,1.29l.11,4.75c0,1.23.07,1.28,1.11,1.39v.48Z"/><path class="cls-2" d="M102.33,62.74a1.86,1.86,0,0,1-1.6,1.65L100.6,64c.58-.24.88-.52.88-.94a.82.82,0,0,0-.7-.75s-.15-.11-.15-.32a.56.56,0,0,1,.6-.51A1.23,1.23,0,0,1,102.33,62.74Z"/><path class="cls-2" d="M108,56.46a2.9,2.9,0,0,1,1.74.41,1.69,1.69,0,0,1,.7,1.46,2.08,2.08,0,0,1-2,2.1,2.27,2.27,0,0,1-.43,0l-.71-.19v1.45c0,.85.09.9,1,1v.37h-3v-.37c.76-.06.87-.14.87-1V57.81c0-.87-.11-.92-.81-1v-.38Zm-.72,3.4A2,2,0,0,0,108,60c.48,0,1.28-.31,1.28-1.59a1.32,1.32,0,0,0-1.36-1.51.7.7,0,0,0-.44.09.48.48,0,0,0-.12.39Z"/><path class="cls-2" d="M116.24,61.37c-.07.39-.28,1.4-.37,1.68h-4.73v-.38c.84-.06.94-.13.94-1V57.8c0-.85-.1-.91-.88-1v-.38h2.89v.38c-.79,0-.88.11-.88,1v3.92c0,.49.05.69.26.78a2,2,0,0,0,.82.11,1.29,1.29,0,0,0,1-.32,3.19,3.19,0,0,0,.52-1Z"/><path class="cls-2" d="M122.72,61.36c-.14.47-.39,1.22-.55,1.58a9.79,9.79,0,0,1-1.85.25,3.3,3.3,0,0,1-3.62-3.34c0-2.12,1.58-3.54,3.87-3.54a7.22,7.22,0,0,1,1.76.26c.09.56.15,1,.21,1.62l-.38.07a1.73,1.73,0,0,0-1.83-1.5c-1.48,0-2.31,1.36-2.31,2.88,0,1.85,1,3.09,2.39,3.09.88,0,1.41-.51,1.92-1.53Z"/></g></g></svg>