<svg id="Layer_1" data-name="Layer 1" xmlns="http://www.w3.org/2000/svg" viewBox="0 0 612 792"><defs><style>.cls-1{fill:#a65525;}.cls-2{fill:#2c1753;}</style></defs><path class="cls-1" d="M77.06,75.83q0,4.35,3.48,4.35,4.68,0,11.29-8.45A61.89,61.89,0,0,0,101,56.36q3.15-7.83,3.15-11.93a8.22,8.22,0,0,0-.1-1.3,3.17,3.17,0,0,1-2.34-1.49v.06a2.27,2.27,0,0,1-.78-1.59,1.78,1.78,0,0,1,1.87-1.85,1.19,1.19,0,0,1,1.17.81,5.73,5.73,0,0,0,.86,1.46c.34.44.5.74.46.91a1,1,0,0,0,1,.59,2.35,2.35,0,0,0,1.48-.78,2.29,2.29,0,0,1,1.32-.78c.33,0,.5.13.5.39,0,.48-.33.93-1,1.36a1.94,1.94,0,0,1-1.25.59h-1.66a19.69,19.69,0,0,1,.62,3.83q0,5.2-4,13.52A55.18,55.18,0,0,1,92,74.92q-6.3,6.63-11.42,6.63T75.5,75.31q0-4.94,3.33-14.11L82.57,51l-5.09,4.94c-1.6,1.65-3.22,3.45-4.87,5.43s-4.51,6-8.6,12.18l-6,9.23c-1,1.39-1.84,2.08-2.6,2.08-.59,0-.89-.47-.89-1.43a10.18,10.18,0,0,1,.94-3.7l10-18.07Q74.57,45,74.56,40.47q0-2.47-3.64-2.47-4.41,0-12.32,6.76a35.6,35.6,0,0,0-7.49,9.13q-3.22,5.49-3.22,9.1t3.85,3.61q3.59,0,7.38-4.16C60,61.49,60.54,61,60.68,61s.19.15.16.45q-.59,2.48-4.24,4.72a12.9,12.9,0,0,1-6.48,2.24,4.24,4.24,0,0,1-1-.07h-.06q-4.15-1.09-4.16-5.13t3.59-9.69A39.84,39.84,0,0,1,64.84,38.65q5.14-2.48,8.48-2.47,4.09,0,4.1,3.38,0,7-14.14,30.48-4.72,7.88-4.78,7.87.15,0,5.43-7.35A143.37,143.37,0,0,1,73.94,58q1.82-2,6.29-7.41a39.22,39.22,0,0,1,5-4.94,3.12,3.12,0,0,1,2-.52,1.77,1.77,0,0,1,1.74.91,91.4,91.4,0,0,0-8.35,16.61Q77.07,71.86,77.06,75.83Z"/><path class="cls-2" d="M21,89.62c-1,.14-1.24.29-1.67,1.53C19,92.24,18.06,95,16.78,99.38H16c-.82-2.38-1.69-4.86-2.52-7.26h0c-.82,2.52-1.64,4.9-2.38,7.26h-.73c-.83-2.8-1.63-5.49-2.49-8.28-.37-1.2-.63-1.38-1.52-1.48V89h4.21v.58c-1.13.12-1.16.28-.95,1,.55,2,1.09,3.85,1.67,5.8h0c.76-2.44,1.56-4.88,2.31-7.31h.69c.84,2.44,1.71,4.86,2.56,7.34h.05c.59-2,1.32-4.59,1.56-5.65.21-.91.13-1.12-1.09-1.22V89H21Z"/><path class="cls-2" d="M20.78,99.23v-.48c1-.08,1.11-.16,1.11-1.23v-5c0-1.08-.13-1.16-1.11-1.23v-.48h3.64v.48c-1,.07-1.1.15-1.1,1.23v5c0,1.08.12,1.15,1.1,1.23v.48Z"/><path class="cls-2" d="M30,92.9c-.25-.81-.62-1.71-1.68-1.71A1.26,1.26,0,0,0,27,92.48c0,.8.55,1.23,1.62,1.77s2.23,1.27,2.23,2.63-1.2,2.53-3,2.53a4.87,4.87,0,0,1-1.25-.18,4.35,4.35,0,0,1-.73-.27,13.54,13.54,0,0,1-.38-2.1l.51-.14c.21.79.84,2.15,2.12,2.15a1.31,1.31,0,0,0,1.38-1.42c0-.83-.64-1.3-1.59-1.8-1.12-.56-2.18-1.25-2.18-2.58s1-2.42,2.81-2.42a5.34,5.34,0,0,1,1.71.32c.05.46.14,1,.25,1.83Z"/><path class="cls-2" d="M38.35,97.12c-.08.5-.34,1.73-.45,2.11H31.53v-.48c1.09-.1,1.21-.16,1.21-1.23v-5c0-1.09-.12-1.16-1.06-1.23v-.48h5.91c0,.24.07,1.16.13,1.91l-.51.07a2.67,2.67,0,0,0-.45-1.08c-.16-.24-.52-.35-1.3-.35h-.78c-.45,0-.49,0-.49.45v2.74h1c1.08,0,1.21-.08,1.38-1H37v2.59h-.48c-.17-.95-.3-1-1.38-1h-1v2.28c0,.6.08.9.32,1a3.08,3.08,0,0,0,1.22.15c.75,0,1.18-.08,1.46-.41A4,4,0,0,0,37.86,97Z"/><path class="cls-2" d="M50,96.63c-.11.61-.43,2.16-.57,2.6H42.1v-.58c1.29-.1,1.45-.2,1.45-1.5v-6c0-1.31-.16-1.41-1.36-1.5V89h4.47v.58c-1.22.09-1.36.19-1.36,1.5v6c0,.76.07,1.07.39,1.21a3.28,3.28,0,0,0,1.27.17,2,2,0,0,0,1.61-.49,5.3,5.3,0,0,0,.81-1.57Z"/><path class="cls-2" d="M54.37,99.23v-.48c.76-.11.84-.22.67-.75s-.35-1-.56-1.57H51.94c-.16.41-.32.86-.47,1.38-.21.69-.15.83.78.94v.48H49.38v-.48c.84-.11,1-.21,1.42-1.3l2.58-6.65.6-.15c.78,2.18,1.61,4.6,2.42,6.77.39,1.11.56,1.23,1.4,1.33v.48Zm-1.12-6.48h0c-.36,1-.71,2-1.07,3h2.12Z"/><path class="cls-2" d="M69.13,91.32c-.85.11-1,.24-1.37,1.26s-1.05,3.16-2.1,6.77H65c-.67-1.95-1.38-4-2.07-6h0c-.67,2.07-1.35,4-2,6h-.6c-.68-2.3-1.34-4.52-2-6.81-.31-1-.52-1.14-1.26-1.22v-.48h3.47v.48c-.93.09-.95.22-.78.85.45,1.61.89,3.17,1.37,4.78h0c.63-2,1.28-4,1.9-6h.57c.69,2,1.4,4,2.11,6h0c.48-1.62,1.09-3.78,1.28-4.65s.11-.92-.89-1v-.48h2.95Z"/><path class="cls-2" d="M80.05,90.58a3.73,3.73,0,0,0-.61-1.46c-.28-.4-.73-.53-1.78-.53H76.59c-.58,0-.65,0-.65.61v3.89H77.5c1.52,0,1.66-.13,1.84-1.26H80v3.48h-.67C79.16,94.1,79,94,77.5,94H75.94v2.9c0,1.51.16,1.6,1.7,1.73v.65H72.51v-.65c1.31-.11,1.48-.22,1.48-1.73V90.2c0-1.5-.17-1.61-1.46-1.71v-.64h8c0,.41.1,1.65.2,2.62Z"/><path class="cls-2" d="M81.81,99.23v-.48c1-.08,1.11-.16,1.11-1.23v-5c0-1.08-.13-1.16-1.11-1.23v-.48h3.64v.48c-1,.07-1.1.15-1.1,1.23v5c0,1.08.12,1.15,1.1,1.23v.48Z"/><path class="cls-2" d="M94.2,99.34l-.44,0a2.41,2.41,0,0,1-2.35-1.21c-.38-.56-.78-1.33-1.15-2a.89.89,0,0,0-.92-.51H89v1.9c0,1.07.11,1.15,1.09,1.23v.48H86.44v-.48c1-.08,1.14-.16,1.14-1.23v-5c0-1-.13-1.13-1.08-1.2v-.48h3.43a3.74,3.74,0,0,1,2.15.45A2,2,0,0,1,93,93a2.27,2.27,0,0,1-1.61,2.17c.21.37.71,1.24,1.1,1.83a7.89,7.89,0,0,0,1,1.33,1.93,1.93,0,0,0,.84.58Zm-4.72-4.25a1.93,1.93,0,0,0,1.26-.35,1.83,1.83,0,0,0,.67-1.55,1.64,1.64,0,0,0-1.69-1.83c-.34,0-.52,0-.6.14S89,91.71,89,92v3.06Z"/><path class="cls-2" d="M101.2,99.34v-.48c1-.11,1.06-.16,1-1.4l0-5.09h0l-2.88,6.87h-.38l-2.63-6.72h-.06L96.07,96a16.44,16.44,0,0,0,0,2c0,.58.32.69,1.18.76v.49H94.14v-.49c.71-.07,1-.22,1-.73a18.23,18.23,0,0,0,.25-2.32l.2-2.69c.11-1.48,0-1.59-1.09-1.68V91H97l2.56,5.91L102.2,91h2.46v.48c-1.06.09-1.1.14-1.08,1.28l.12,4.75c0,1.24.07,1.29,1.11,1.4v.48Z"/><path class="cls-2" d="M108.7,98.92a1.86,1.86,0,0,1-1.61,1.65l-.13-.39c.58-.23.88-.51.88-.93a.81.81,0,0,0-.69-.75c-.06,0-.15-.11-.15-.32a.55.55,0,0,1,.6-.51A1.23,1.23,0,0,1,108.7,98.92Z"/><path class="cls-2" d="M114.4,92.64a2.88,2.88,0,0,1,1.74.41,1.7,1.7,0,0,1,.71,1.46,2.08,2.08,0,0,1-2,2.1,3.39,3.39,0,0,1-.43,0l-.7-.18V97.9c0,.85.09.9,1,1v.37h-3v-.37c.77-.06.87-.14.87-1V94c0-.87-.1-.92-.8-1v-.37Zm-.71,3.4a1.9,1.9,0,0,0,.64.11c.48,0,1.28-.31,1.28-1.59a1.33,1.33,0,0,0-1.37-1.51.7.7,0,0,0-.44.09.52.52,0,0,0-.11.39Z"/><path class="cls-2" d="M122.6,97.55c-.07.39-.28,1.39-.36,1.68h-4.73v-.38c.83-.06.94-.13.94-1V94c0-.85-.11-.91-.88-1v-.37h2.89V93c-.79.06-.89.12-.89,1V97.9c0,.49.05.69.26.78a2,2,0,0,0,.82.11,1.3,1.3,0,0,0,1-.32,3.4,3.4,0,0,0,.53-1Z"/><path class="cls-2" d="M129.08,97.54a14.45,14.45,0,0,1-.55,1.58,10.41,10.41,0,0,1-1.84.25A3.3,3.3,0,0,1,123.07,96c0-2.12,1.58-3.54,3.87-3.54a7.22,7.22,0,0,1,1.76.26c.09.56.15,1,.2,1.62l-.38.07a1.72,1.72,0,0,0-1.82-1.5c-1.48,0-2.31,1.36-2.31,2.88,0,1.85,1,3.09,2.38,3.09.88,0,1.42-.51,1.93-1.53Z"/></svg>